<svg width="20" height="20" viewBox="0 0 20 20" fill="none" xmlns="http://www.w3.org/2000/svg">
<path d="M17.5 5.83333V15.8333C17.5 16.2917 17.3369 16.6842 17.0108 17.0108C16.6847 17.3375 16.2922 17.5006 15.8333 17.5H4.16667C3.70833 17.5 3.31611 17.3369 2.99 17.0108C2.66389 16.6847 2.50056 16.2922 2.5 15.8333V4.16667C2.5 3.70833 2.66333 3.31611 2.99 2.99C3.31667 2.66389 3.70889 2.50056 4.16667 2.5H14.1667L17.5 5.83333ZM10 15C10.6944 15 11.2847 14.7569 11.7708 14.2708C12.2569 13.7847 12.5 13.1944 12.5 12.5C12.5 11.8056 12.2569 11.2153 11.7708 10.7292C11.2847 10.2431 10.6944 10 10 10C9.30556 10 8.71528 10.2431 8.22917 10.7292C7.74306 11.2153 7.5 11.8056 7.5 12.5C7.5 13.1944 7.74306 13.7847 8.22917 14.2708C8.71528 14.7569 9.30556 15 10 15ZM5 8.33333H12.5V5H5V8.33333Z" fill="#575E75"/>
</svg>
