<svg width="20" height="20" viewBox="0 0 20 20" fill="none" xmlns="http://www.w3.org/2000/svg">
<path d="M10 1.25C10.1658 1.25 10.3247 1.31585 10.4419 1.43306C10.5592 1.55027 10.625 1.70924 10.625 1.875V6.25H9.375V1.875C9.375 1.70924 9.44085 1.55027 9.55806 1.43306C9.67527 1.31585 9.83424 1.25 10 1.25ZM9.375 6.25V10.9917L7.94167 9.55833C7.82319 9.44793 7.66648 9.38783 7.50456 9.39069C7.34265 9.39354 7.18816 9.45914 7.07365 9.57365C6.95914 9.68816 6.89354 9.84265 6.89069 10.0046C6.88783 10.1665 6.94793 10.3232 7.05833 10.4417L9.55833 12.9417C9.67552 13.0587 9.83437 13.1244 10 13.1244C10.1656 13.1244 10.3245 13.0587 10.4417 12.9417L12.9417 10.4417C13.0031 10.3844 13.0523 10.3154 13.0865 10.2388C13.1206 10.1621 13.139 10.0794 13.1405 9.99543C13.142 9.91152 13.1265 9.82816 13.0951 9.75034C13.0637 9.67251 13.0169 9.60182 12.9575 9.54247C12.8982 9.48312 12.8275 9.43633 12.7497 9.4049C12.6718 9.37346 12.5885 9.35803 12.5046 9.35951C12.4206 9.36099 12.3379 9.37936 12.2612 9.41352C12.1846 9.44768 12.1156 9.49693 12.0583 9.55833L10.625 10.9917V6.25H13.75C14.413 6.25 15.0489 6.51339 15.5178 6.98223C15.9866 7.45107 16.25 8.08696 16.25 8.75V16.25C16.25 16.913 15.9866 17.5489 15.5178 18.0178C15.0489 18.4866 14.413 18.75 13.75 18.75H6.25C5.58696 18.75 4.95107 18.4866 4.48223 18.0178C4.01339 17.5489 3.75 16.913 3.75 16.25V8.75C3.75 8.08696 4.01339 7.45107 4.48223 6.98223C4.95107 6.51339 5.58696 6.25 6.25 6.25H9.375Z" fill="#575E75"/>
</svg>
