<svg width="28" height="28" viewBox="0 0 28 28" fill="none" xmlns="http://www.w3.org/2000/svg">
<path d="M23.625 10.625V13.25C23.625 13.4821 23.5328 13.7046 23.3687 13.8687C23.2046 14.0328 22.9821 14.125 22.75 14.125C22.5179 14.125 22.2954 14.0328 22.1313 13.8687C21.9672 13.7046 21.875 13.4821 21.875 13.25V11.5H16.625C16.3929 11.5 16.1704 11.4078 16.0063 11.2437C15.8422 11.0796 15.75 10.8571 15.75 10.625V5.375H6.125V13.25C6.125 13.4821 6.03281 13.7046 5.86872 13.8687C5.70462 14.0328 5.48206 14.125 5.25 14.125C5.01794 14.125 4.79538 14.0328 4.63128 13.8687C4.46719 13.7046 4.375 13.4821 4.375 13.25V5.375C4.375 4.91087 4.55937 4.46575 4.88756 4.13756C5.21575 3.80937 5.66087 3.625 6.125 3.625H16.625C16.7399 3.62491 16.8538 3.64747 16.96 3.69138C17.0662 3.7353 17.1627 3.79971 17.2441 3.88094L23.3691 10.0059C23.4503 10.0873 23.5147 10.1838 23.5586 10.29C23.6025 10.3962 23.6251 10.5101 23.625 10.625ZM20.638 9.75L17.5 6.61203V9.75H20.638Z" fill="#575E75"/>
<path d="M21.1025 24.6432C19.3936 24.6432 18.1802 23.726 18.1289 22.3759H19.4049C19.4505 23.0994 20.1683 23.5608 21.0911 23.5608C22.0881 23.5608 22.8115 23.0197 22.8115 22.2164C22.8115 21.4018 22.1336 20.8208 20.9544 20.8151H20.248V19.7897H20.9544C21.8944 19.7954 22.5495 19.2713 22.5495 18.4795C22.5495 17.7275 21.9855 17.2148 21.1139 17.2148C20.2879 17.2148 19.5474 17.6762 19.5189 18.4225H18.3112C18.3454 17.0781 19.5872 16.1666 21.1253 16.1666C22.7489 16.1666 23.7686 17.192 23.7572 18.4111C23.7686 19.351 23.1875 20.0232 22.2988 20.2454V20.3024C23.4268 20.4619 24.0819 21.2195 24.0762 22.262C24.0819 23.6349 22.8115 24.6432 21.1025 24.6432Z" fill="#575E75"/>
<path d="M10.9967 24.5292V16.2805H14.0159C15.7762 16.2805 16.625 17.2205 16.625 18.4452C16.625 19.4763 15.9926 19.9947 15.235 20.1884V20.2681C16.0553 20.3137 16.944 21.0315 16.944 22.3075C16.944 23.5722 16.0781 24.5292 14.1526 24.5292H10.9967ZM12.25 23.4583H14.0387C15.2236 23.4526 15.7021 22.9342 15.7021 22.2506C15.7021 21.4587 15.0755 20.8264 14.0843 20.8264H12.25V23.4583ZM12.25 19.8466H13.9134C14.7451 19.8409 15.3945 19.3396 15.3945 18.5478C15.3945 17.8642 14.9217 17.3515 13.9362 17.3515H12.25V19.8466Z" fill="#575E75"/>
<path d="M8.31934 18.4567C8.23958 17.6876 7.56738 17.249 6.62174 17.249C5.61344 17.249 4.97542 17.7674 4.96973 18.4681C4.96973 19.2485 5.81852 19.5561 6.47363 19.7099L7.27116 19.9264C8.32503 20.1827 9.64665 20.7581 9.65234 22.2506C9.64665 23.6463 8.53581 24.666 6.58756 24.666C4.74186 24.666 3.57975 23.7431 3.5 22.2392H4.75326C4.82731 23.1393 5.62484 23.5665 6.58756 23.5722C7.64144 23.5665 8.40479 23.0367 8.41048 22.2278C8.40479 21.5101 7.72119 21.2195 6.84961 20.986L5.86979 20.7239C4.54248 20.3593 3.72217 19.6871 3.71647 18.5364C3.72217 17.1123 4.98682 16.1666 6.65592 16.1666C8.33073 16.1666 9.49854 17.1237 9.53841 18.4567H8.31934Z" fill="#575E75"/>
</svg>
